# xmcd CD database file
#
# Track frame offsets:
#	150
#	8875
#	15165
#	22828
#	28218
#	32513
#	46208
#	56850
#	72925
#	83668
#	93263
#	102763
#	110080
#	122730
#	134273
#	141975
#	149005
#
# Disc length: 2095 seconds
#
# Revision: 17
# Processed by: cddbd v1.5.2PL0 Copyright (c) Steve Scherf et al.
# Submitted via: CDex 1.51
#
DISCID=e1082d11
DTITLE=Bad Religion - Against The Grain
DYEAR=1990
DGENRE=Punk
TTITLE0=Modern Man
TTITLE1=Turn On The Light
TTITLE2=Get Off
TTITLE3=Blenderhead
TTITLE4=The Positive Aspect Of Negative Thinking
TTITLE5=Anesthesia
TTITLE6=Flat Earth Society
TTITLE7=Faith Alone
TTITLE8=Entropy
TTITLE9=Against The Grain
TTITLE10=Operation Rescue
TTITLE11=God Song
TTITLE12=21st Century (Digital Boy)
TTITLE13=Misery And Famine
TTITLE14=Unacceptable
TTITLE15=Quality Or Quantity
TTITLE16=Walk Away
EXTD=YEAR: 1990
EXTT0=
EXTT1=
EXTT2=
EXTT3=
EXTT4=
EXTT5=
EXTT6=
EXTT7=
EXTT8=
EXTT9=
EXTT10=
EXTT11=
EXTT12=
EXTT13=
EXTT14=
EXTT15=
EXTT16=
PLAYORDER=
